<svg xmlns="http://www.w3.org/2000/svg" height="100%" width="100%" preserveAspectRatio="none" viewBox="0 0 1657.1 941.9"><defs><style>.a{fill:none;stroke:#000;stroke-miterlimit:10;stroke-width:3px;stroke-dasharray:12;}</style></defs><title>route</title><path class="a" d="M768.4,548.7l9.3-12.6c19.8-27.1,39.9-54.4,64.9-76.9,31.6-28.3,69.4-44.8,112-45.7,104-2,323,81,421,79s352-161,365-224-96-148-211-164-362-52-503-22-263,116-315,159-202,61-263-10-236-122-284-25-133,246-24,332,285,111,259,179-105,135-129,168,16,87,184,107,304,39,391-43c40.4-38.1,77.1-80.8,120.6-115.4,45.1-35.8,93.6-40.5,149-50.4,10.9-2,21.9-3.9,33-3.8,28,.4,54,14.2,76.8,30.4,57.5,41,111.2,90.7,178.5,115.2,77,28,178,35,199-21s-100-251-100-251c-56-7.3-112.2-13.6-168.4-19.3-45.5-4.6-91.1-8.7-136.7-11.4-56-3.3-112,.7-168.3,3.2l-166.8,7.4c-37.3,1.7-74.8,8.9-111.4-1.7-5.1-1.5-10.3-3.3-14-7.1-11.2-11.5-1.9-30.4,7.5-43.3Z"/></svg>